<svg xmlns="http://www.w3.org/2000/svg" version="1.1" xmlnsXlink="http://www.w3.org/1999/xlink"
    xmlnsSvgjs="http://svgjs.dev/svgjs" width="1000" height="227" viewBox="0 0 1000 227">
    <g transform="matrix(1,0,0,1,0.16994382022460286,0.19196913580246644)">
        <svg viewBox="0 0 356 81" data-background-color="#ffffff"
            preserveAspectRatio="xMidYMid meet" height="227" width="1000"
            xmlns="http://www.w3.org/2000/svg" xmlnsXlink="http://www.w3.org/1999/xlink">
            <g id="tight-bounds"
                transform="matrix(1,0,0,1,-0.06049999999996203,-0.06850000000000023)">
                <svg viewBox="0 0 356.12052 81.13658017353579" height="81.13658017353579"
                    width="356.12052">
                    <g>
                        <svg viewBox="0 0 356.12052 81.13658017353579" height="81.13658017353579"
                            width="356.12052">
                            <g>
                                <svg viewBox="0 0 356.12052 81.13658017353579"
                                    height="81.13658017353579" width="356.12052">
                                    <g>
                                        <path d="M0 81.137v-81.137h356.121v81.137z" fill="#0063db"
                                            stroke="transparent" stroke-width="0" rx="0%"
                                            data-fill-palette-color="tertiary"></path>
                                        <path d="M3.283 77.853v-74.57h349.554v74.57z" fill="#ffffff"
                                            stroke="transparent" stroke-width="0" rx="0%"
                                            data-fill-palette-color="quaternary"></path>
                                        <path d="M9.85 71.287v-61.437h336.421v61.437z"
                                            fill="#0063db" stroke="transparent" stroke-width="0"
                                            data-fill-palette-color="tertiary"></path>
                                    </g>
                                    <g transform="matrix(1,0,0,1,19.69974,19.69974)"
                                        id="textblocktransform">
                                        <svg viewBox="0 0 316.72104 41.737100173535794"
                                            height="41.737100173535794" width="316.72104"
                                            id="textblock">
                                            <g>
                                                <svg viewBox="0 0 316.72104 41.737100173535794"
                                                    height="41.737100173535794" width="316.72104">
                                                    <g transform="matrix(1,0,0,1,0,0)">
                                                        <svg width="316.72104"
                                                            viewBox="0.42 -35.6 270.09 35.6"
                                                            height="41.737100173535794"
                                                            data-palette-color="#ffffff">
                                                            <path
                                                                d="M31.42-17.24L31.42-17.24Q31.42-15.01 30.91-12.95 30.4-10.89 29.43-9.08 28.47-7.28 27.09-5.77 25.71-4.27 23.99-3.2 22.27-2.12 20.24-1.53 18.21-0.93 15.94-0.93L15.94-0.93Q13.75-0.93 11.76-1.49 9.77-2.05 8.03-3.06 6.3-4.08 4.9-5.51 3.49-6.93 2.5-8.68 1.51-10.42 0.96-12.43 0.42-14.43 0.42-16.6L0.42-16.6Q0.42-18.73 0.93-20.76 1.44-22.8 2.4-24.61 3.37-26.42 4.74-27.93 6.1-29.44 7.8-30.54 9.5-31.64 11.47-32.25 13.45-32.86 15.65-32.86L15.65-32.86Q19.19-32.86 22.11-31.76 25.02-30.66 27.09-28.63 29.15-26.59 30.29-23.69 31.42-20.8 31.42-17.24ZM20.58-16.6L20.58-16.6Q20.58-17.65 20.28-18.64 19.97-19.63 19.38-20.4 18.8-21.17 17.93-21.64 17.07-22.12 15.94-22.12L15.94-22.12Q14.79-22.12 13.89-21.7 12.99-21.29 12.34-20.57 11.69-19.85 11.35-18.88 11.01-17.92 11.01-16.85L11.01-16.85Q11.01-15.82 11.3-14.79 11.6-13.77 12.18-12.94 12.77-12.11 13.64-11.6 14.5-11.08 15.65-11.08L15.65-11.08Q16.8-11.08 17.71-11.54 18.63-11.99 19.26-12.76 19.9-13.53 20.24-14.53 20.58-15.53 20.58-16.6ZM54.81-34.62L66.33-35.01 64.57-1.9 51.78-0.73 44.94-18.46 43.87-0.39 32.88-0.39 33.76-35.01 45.97-35.6 54.42-18.02 54.81-34.62ZM92.26-34.33L92.26-34.33 90.89-24.02Q90.18-24.22 89.47-24.29 88.76-24.37 88.06-24.37L88.06-24.37Q86.25-24.37 84.61-23.89 82.98-23.41 81.72-22.44 80.46-21.46 79.72-20 78.97-18.53 78.97-16.55L78.97-16.55Q78.97-15.28 79.38-14.36 79.78-13.43 80.51-12.82 81.25-12.21 82.25-11.91 83.25-11.62 84.44-11.62L84.44-11.62Q85.35-11.62 86.32-11.82 87.3-12.01 88.25-12.33 89.2-12.65 90.11-13.06 91.01-13.48 91.77-13.92L91.77-13.92 90.79-2.44Q89.84-1.95 88.73-1.57 87.62-1.2 86.45-0.92 85.27-0.63 84.1-0.49 82.93-0.34 81.86-0.34L81.86-0.34Q78.75-0.34 76.07-1.49 73.38-2.64 71.41-4.64 69.43-6.64 68.29-9.36 67.16-12.08 67.16-15.23L67.16-15.23Q67.16-19.41 68.35-23.11 69.55-26.81 71.87-29.59 74.19-32.37 77.62-33.98 81.05-35.6 85.52-35.6L85.52-35.6Q87.2-35.6 88.97-35.33 90.74-35.06 92.26-34.33ZM123.67-17.24L123.67-17.24Q123.67-15.01 123.16-12.95 122.65-10.89 121.68-9.08 120.72-7.28 119.34-5.77 117.96-4.27 116.24-3.2 114.52-2.12 112.49-1.53 110.47-0.93 108.2-0.93L108.2-0.93Q106-0.93 104.01-1.49 102.02-2.05 100.29-3.06 98.55-4.08 97.15-5.51 95.74-6.93 94.76-8.68 93.77-10.42 93.22-12.43 92.67-14.43 92.67-16.6L92.67-16.6Q92.67-18.73 93.18-20.76 93.69-22.8 94.66-24.61 95.62-26.42 96.99-27.93 98.36-29.44 100.05-30.54 101.75-31.64 103.73-32.25 105.71-32.86 107.9-32.86L107.9-32.86Q111.44-32.86 114.36-31.76 117.28-30.66 119.34-28.63 121.4-26.59 122.54-23.69 123.67-20.8 123.67-17.24ZM112.83-16.6L112.83-16.6Q112.83-17.65 112.53-18.64 112.22-19.63 111.64-20.4 111.05-21.17 110.19-21.64 109.32-22.12 108.2-22.12L108.2-22.12Q107.05-22.12 106.14-21.7 105.24-21.29 104.59-20.57 103.95-19.85 103.61-18.88 103.26-17.92 103.26-16.85L103.26-16.85Q103.26-15.82 103.56-14.79 103.85-13.77 104.44-12.94 105.02-12.11 105.89-11.6 106.76-11.08 107.9-11.08L107.9-11.08Q109.05-11.08 109.97-11.54 110.88-11.99 111.52-12.76 112.15-13.53 112.49-14.53 112.83-15.53 112.83-16.6ZM147.06-34.62L158.58-35.01 156.83-1.9 144.03-0.73 137.2-18.46 136.12-0.39 125.14-0.39 126.02-35.01 138.22-35.6 146.67-18.02 147.06-34.62ZM182.24-34.62L193.76-35.01 192-1.9 179.21-0.73 172.38-18.46 171.3-0.39 160.31-0.39 161.19-35.01 173.4-35.6 181.85-18.02 182.24-34.62ZM196.35-35.21L218.86-35.21Q218.71-32.91 218.59-30.66 218.47-28.42 218.27-26.12L218.27-26.12 207.92-25.59 207.68-22.51 214.95-22.51 214.41-14.94 207.09-14.7 206.85-11.13 212.9-11.13 217.2-11.13Q217.05-8.45 216.89-5.8 216.73-3.15 216.61-0.49L216.61-0.49 195.57 0 196.35-35.21ZM243.17-34.33L243.17-34.33 241.8-24.02Q241.1-24.22 240.39-24.29 239.68-24.37 238.97-24.37L238.97-24.37Q237.17-24.37 235.53-23.89 233.89-23.41 232.64-22.44 231.38-21.46 230.63-20 229.89-18.53 229.89-16.55L229.89-16.55Q229.89-15.28 230.29-14.36 230.7-13.43 231.43-12.82 232.16-12.21 233.16-11.91 234.16-11.62 235.36-11.62L235.36-11.62Q236.26-11.62 237.24-11.82 238.21-12.01 239.17-12.33 240.12-12.65 241.02-13.06 241.93-13.48 242.68-13.92L242.68-13.92 241.71-2.44Q240.75-1.95 239.64-1.57 238.53-1.2 237.36-0.92 236.19-0.63 235.02-0.49 233.84-0.34 232.77-0.34L232.77-0.34Q229.67-0.34 226.98-1.49 224.3-2.64 222.32-4.64 220.34-6.64 219.21-9.36 218.07-12.08 218.07-15.23L218.07-15.23Q218.07-19.41 219.27-23.11 220.47-26.81 222.79-29.59 225.1-32.37 228.53-33.98 231.96-35.6 236.43-35.6L236.43-35.6Q238.12-35.6 239.89-35.33 241.66-35.06 243.17-34.33ZM243.9-34.86L270.51-34.91 270.27-24.56 262.99-24.27 261.14-1.12 250.83-0.59 250.88-23.73 243.61-23.34 243.9-34.86Z"
                                                                opacity="1"
                                                                transform="matrix(1,0,0,1,0,0)"
                                                                fill="#ffffff"
                                                                class="wordmark-text-0"
                                                                data-fill-palette-color="quaternary"
                                                                id="text-0"></path>
                                                        </svg>
                                                    </g>
                                                </svg>
                                            </g>
                                        </svg>
                                    </g>
                                </svg>
                            </g>
                            <g></g>
                        </svg>
                    </g>
                    <defs></defs>
                </svg>
                <rect width="356.12052" height="81.13658017353579" fill="none" stroke="none"
                    visibility="hidden"></rect>
            </g>
        </svg>
    </g>
</svg>