<svg width="19" height="18" viewBox="0 0 19 18" fill="none" xmlns="http://www.w3.org/2000/svg">
<path fill-rule="evenodd" clip-rule="evenodd" d="M12.6649 0H1.94844C0.8768 0 0 0.7125 0 1.58333V11.875C0 12.3104 0.4384 12.6667 0.974222 12.6667C1.51004 12.6667 1.94844 12.3104 1.94844 11.875V2.375C1.94844 1.93958 2.38684 1.58333 2.92267 1.58333H12.6649C13.2007 1.58333 13.6391 1.22708 13.6391 0.791667C13.6391 0.35625 13.2007 0 12.6649 0ZM16.5618 3.16667H5.84533C4.77369 3.16667 3.89689 3.87917 3.89689 4.75V15.8333C3.89689 16.7042 4.77369 17.4167 5.84533 17.4167H16.5618C17.6334 17.4167 18.5102 16.7042 18.5102 15.8333V4.75C18.5102 3.87917 17.6334 3.16667 16.5618 3.16667ZM6.81955 15.8333H15.5876C16.1234 15.8333 16.5618 15.4771 16.5618 15.0417V5.54167C16.5618 5.10625 16.1234 4.75 15.5876 4.75H6.81955C6.28373 4.75 5.84533 5.10625 5.84533 5.54167V15.0417C5.84533 15.4771 6.28373 15.8333 6.81955 15.8333Z" fill="#D8D8D8"/>
</svg>
