<svg width="19" height="19" viewBox="0 0 19 19" fill="none" xmlns="http://www.w3.org/2000/svg">
<path d="M18.8256 7.77081H9.69336V11.447H14.9103C14.6854 12.6353 14.0029 13.6404 12.9742 14.3137C12.1047 14.8831 10.9951 15.2198 9.69083 15.2198C7.16576 15.2198 5.02993 13.5488 4.2666 11.3035C4.0745 10.7341 3.96328 10.1251 3.96328 9.49876C3.96328 8.87244 4.0745 8.26345 4.2666 7.69407C5.03246 5.4512 7.16828 3.7802 9.69336 3.7802C11.1164 3.7802 12.3928 4.26046 13.3988 5.20117L16.1792 2.47557C14.4983 0.940717 12.3069 0 9.69336 0C5.90448 0 2.62618 2.12899 1.03126 5.23335C0.374085 6.5157 0 7.96638 0 9.50124C0 11.0361 0.374085 12.4843 1.03126 13.7666C2.62618 16.871 5.90448 19 9.69336 19C12.312 19 14.5059 18.1484 16.1084 16.6977C17.9409 15.044 19 12.6081 19 9.71414C19 9.04078 18.9393 8.39466 18.8256 7.77081Z" fill="#484848"/>
</svg>
